<svg xmlns="http://www.w3.org/2000/svg" width="16" height="16" viewBox="0 0 16 16" fill="none">
    <path fill-rule="evenodd" clip-rule="evenodd" d="M3.37357 3.36852C4.64977 2.09228 6.32605 1.45376 8.00313 1.45376C9.6786 1.45376 11.3549 2.09228 12.6311 3.36852C15.1835 5.92101 15.1835 10.0738 12.6311 12.6263C11.3953 13.863 9.75134 14.5443 8.00313 14.5443C6.25331 14.5443 4.60936 13.863 3.37357 12.6263C2.13697 11.3905 1.45563 9.7465 1.45563 7.99742C1.45563 6.24835 2.13697 4.60435 3.37357 3.36852ZM8.00313 16C10.1393 16 12.1486 15.1675 13.6608 13.656C16.7797 10.5354 16.7797 5.45949 13.6608 2.33961C10.541 -0.778657 5.46528 -0.781082 2.34469 2.33961C0.832481 3.85105 0 5.86039 0 7.99742C0 10.1345 0.832481 12.1438 2.34469 13.656C3.85608 15.1675 5.86535 16 8.00313 16ZM8.002 5.4215C8.45138 5.4215 8.81428 5.05778 8.81428 4.6092C8.81428 4.16062 8.45138 3.7969 8.002 3.7969C7.55343 3.7969 7.18973 4.16062 7.18973 4.6092C7.18973 5.05778 7.55343 5.4215 8.002 5.4215ZM7.27467 7.87392H6.68547C6.28378 7.87392 5.95806 7.54819 5.95806 7.14649C5.95806 6.74478 6.28378 6.41825 6.68547 6.41825H8.00289C8.40458 6.41825 8.7303 6.74478 8.7303 7.14649L8.73111 11.6929C8.73111 12.0947 8.40539 12.4204 8.0037 12.4204C7.60201 12.4204 7.27548 12.0947 7.27548 11.6929V10.5097C7.27548 10.5064 7.27467 10.504 7.27467 10.5016V7.87392Z" fill="#B2B2B2"/>
</svg>